<svg xmlns="http://www.w3.org/2000/svg" width="42" height="48" viewBox="0 0 42 48"><rect width="42" height="48" fill="white"/><path d="M0 14 L7 1.88 L21 1.88 L28 14 L21 26.12 L7 26.12 Z" fill="white" stroke="black" stroke-width="1.2"/><path d="M21 14 L28 1.88 L42 1.88 L49 14 L42 26.12 L28 26.12 Z" fill="white" stroke="black" stroke-width="1.2"/><path d="M10.5 38.24871130596428 L17.5 26.12 L31.5 26.12 L38.5 38.24871130596428 L31.5 50.37 L17.5 50.37 Z" fill="white" stroke="black" stroke-width="1.2"/><path d="M31.5 38.24871130596428 L38.5 26.12 L52.5 26.12 L59.5 38.24871130596428 L52.5 50.37 L38.5 50.37 Z" fill="white" stroke="black" stroke-width="1.2"/><path d="M-42 14 L-35 1.88 L-21 1.88 L-14 14 L-21 26.12 L-35 26.12 Z" fill="white" stroke="black" stroke-width="1.2"/><path d="M-21 14 L-14 1.88 L0 1.88 L7 14 L0 26.12 L-14 26.12 Z" fill="white" stroke="black" stroke-width="1.2"/><path d="M-31.5 38.24871130596428 L-24.5 26.12 L-10.5 26.12 L-3.5 38.24871130596428 L-10.5 50.37 L-24.5 50.37 Z" fill="white" stroke="black" stroke-width="1.2"/><path d="M-10.5 38.24871130596428 L-3.5 26.12 L10.5 26.12 L17.5 38.24871130596428 L10.5 50.37 L-3.5 50.37 Z" fill="white" stroke="black" stroke-width="1.2"/><path d="M0 62.49742261192856 L7 50.37 L21 50.37 L28 62.49742261192856 L21 74.62 L7 74.62 Z" fill="white" stroke="black" stroke-width="1.2"/><path d="M21 62.49742261192856 L28 50.37 L42 50.37 L49 62.49742261192856 L42 74.62 L28 74.62 Z" fill="white" stroke="black" stroke-width="1.2"/><path d="M10.5 62.49742261192856 L17.5 50.37 L31.5 50.37 L38.5 62.49742261192856 L31.5 74.62 L17.5 74.62 Z" fill="white" stroke="black" stroke-width="1.2"/><path d="M31.5 62.49742261192856 L38.5 50.37 L52.5 50.37 L59.5 62.49742261192856 L52.5 74.62 L38.5 74.62 Z" fill="white" stroke="black" stroke-width="1.2"/></svg>