<svg xmlns="http://www.w3.org/2000/svg" width="336" height="470" viewBox="0 0 336 470"><rect width="336" height="470" fill="white"/><path d="M168 268 L168.0 -352.0 L289.0 -340.1 Z" fill="white" stroke="black" stroke-width="1.4"/><path d="M168 268 L289.0 -340.1 L405.3 -304.8 Z" fill="white" stroke="black" stroke-width="1.4"/><path d="M168 268 L405.3 -304.8 L512.5 -247.5 Z" fill="white" stroke="black" stroke-width="1.4"/><path d="M168 268 L512.5 -247.5 L606.4 -170.4 Z" fill="white" stroke="black" stroke-width="1.4"/><path d="M168 268 L606.4 -170.4 L683.5 -76.5 Z" fill="white" stroke="black" stroke-width="1.4"/><path d="M168 268 L683.5 -76.5 L740.8 30.7 Z" fill="white" stroke="black" stroke-width="1.4"/><path d="M168 268 L740.8 30.7 L776.1 147.0 Z" fill="white" stroke="black" stroke-width="1.4"/><path d="M168 268 L776.1 147.0 L788.0 268.0 Z" fill="white" stroke="black" stroke-width="1.4"/><path d="M168 268 L788.0 268.0 L776.1 389.0 Z" fill="white" stroke="black" stroke-width="1.4"/><path d="M168 268 L776.1 389.0 L740.8 505.3 Z" fill="white" stroke="black" stroke-width="1.4"/><path d="M168 268 L740.8 505.3 L683.5 612.5 Z" fill="white" stroke="black" stroke-width="1.4"/><path d="M168 268 L683.5 612.5 L606.4 706.4 Z" fill="white" stroke="black" stroke-width="1.4"/><path d="M168 268 L606.4 706.4 L512.5 783.5 Z" fill="white" stroke="black" stroke-width="1.4"/><path d="M168 268 L512.5 783.5 L405.3 840.8 Z" fill="white" stroke="black" stroke-width="1.4"/><path d="M168 268 L405.3 840.8 L289.0 876.1 Z" fill="white" stroke="black" stroke-width="1.4"/><path d="M168 268 L289.0 876.1 L168.0 888.0 Z" fill="white" stroke="black" stroke-width="1.4"/><path d="M168 268 L168.0 888.0 L47.0 876.1 Z" fill="white" stroke="black" stroke-width="1.4"/><path d="M168 268 L47.0 876.1 L-69.3 840.8 Z" fill="white" stroke="black" stroke-width="1.4"/><path d="M168 268 L-69.3 840.8 L-176.5 783.5 Z" fill="white" stroke="black" stroke-width="1.4"/><path d="M168 268 L-176.5 783.5 L-270.4 706.4 Z" fill="white" stroke="black" stroke-width="1.4"/><path d="M168 268 L-270.4 706.4 L-347.5 612.5 Z" fill="white" stroke="black" stroke-width="1.4"/><path d="M168 268 L-347.5 612.5 L-404.8 505.3 Z" fill="white" stroke="black" stroke-width="1.4"/><path d="M168 268 L-404.8 505.3 L-440.1 389.0 Z" fill="white" stroke="black" stroke-width="1.4"/><path d="M168 268 L-440.1 389.0 L-452.0 268.0 Z" fill="white" stroke="black" stroke-width="1.4"/><path d="M168 268 L-452.0 268.0 L-440.1 147.0 Z" fill="white" stroke="black" stroke-width="1.4"/><path d="M168 268 L-440.1 147.0 L-404.8 30.7 Z" fill="white" stroke="black" stroke-width="1.4"/><path d="M168 268 L-404.8 30.7 L-347.5 -76.5 Z" fill="white" stroke="black" stroke-width="1.4"/><path d="M168 268 L-347.5 -76.5 L-270.4 -170.4 Z" fill="white" stroke="black" stroke-width="1.4"/><path d="M168 268 L-270.4 -170.4 L-176.5 -247.5 Z" fill="white" stroke="black" stroke-width="1.4"/><path d="M168 268 L-176.5 -247.5 L-69.3 -304.8 Z" fill="white" stroke="black" stroke-width="1.4"/><path d="M168 268 L-69.3 -304.8 L47.0 -340.1 Z" fill="white" stroke="black" stroke-width="1.4"/><path d="M168 268 L47.0 -340.1 L168.0 -352.0 Z" fill="white" stroke="black" stroke-width="1.4"/></svg>